REM DIRINDEX 1\2\6,1\2\7,1\2\8,1\3\9,1\3\10,1\3\11,1\4\12,1\4\13,1\4\14,1\5\15,1\5\16,1\5\17,1\5\18
REM DIRNAME cjc019,folder01,folder02,folder03,folder04,folder05,folder06,folder07,folder08,folder09,folder10,folder11,folder12,folder13,folder14,folder15,folder16,folder17
TITLE ""
FILE "2Q_j_1194-1207.mp3" MP3
  TRACK 01 AUDIO
    TITLE "6:cjc019_0044"
    INDEX 01 00:00:00
  TRACK 02 AUDIO
    TITLE "0:"
    INDEX 01 00:01:13
  TRACK 03 AUDIO
    TITLE "7:cjc019_0045"
    INDEX 01 00:01:66
  TRACK 04 AUDIO
    TITLE "0:"
    INDEX 01 00:03:72
  TRACK 05 AUDIO
    TITLE "8:cjc019_0046"
    INDEX 01 00:04:50
  TRACK 06 AUDIO
    TITLE "0:"
    INDEX 01 00:10:21
  TRACK 07 AUDIO
    TITLE "6:cjc019_0047"
    INDEX 01 00:10:72
  TRACK 08 AUDIO
    TITLE "0:"
    INDEX 01 00:12:01
  TRACK 09 AUDIO
    TITLE "7:cjc019_0048"
    INDEX 01 00:12:69
  TRACK 10 AUDIO
    TITLE "0:"
    INDEX 01 00:17:21
  TRACK 11 AUDIO
    TITLE "8:cjc019_0049"
    INDEX 01 00:18:07
  TRACK 12 AUDIO
    TITLE "0:"
    INDEX 01 00:21:58
  TRACK 13 AUDIO
    TITLE "6:cjc019_0050"
    INDEX 01 00:22:38
  TRACK 14 AUDIO
    TITLE "0:"
    INDEX 01 00:23:57
  TRACK 15 AUDIO
    TITLE "7:cjc019_0051"
    INDEX 01 00:24:37
  TRACK 16 AUDIO
    TITLE "0:"
    INDEX 01 00:26:42
  TRACK 17 AUDIO
    TITLE "8:cjc019_0052"
    INDEX 01 00:27:20
  TRACK 18 AUDIO
    TITLE "0:"
    INDEX 01 00:31:55
  TRACK 19 AUDIO
    TITLE "6:cjc019_0053"
    INDEX 01 00:32:39
  TRACK 20 AUDIO
    TITLE "0:"
    INDEX 01 00:33:52
  TRACK 21 AUDIO
    TITLE "7:cjc019_0054"
    INDEX 01 00:34:45
  TRACK 22 AUDIO
    TITLE "0:"
    INDEX 01 00:36:72
  TRACK 23 AUDIO
    TITLE "8:cjc019_0055"
    INDEX 01 00:37:69
  TRACK 24 AUDIO
    TITLE "0:"
    INDEX 01 00:41:40
  TRACK 25 AUDIO
    TITLE "6:cjc019_0056"
    INDEX 01 00:42:25
  TRACK 26 AUDIO
    TITLE "0:"
    INDEX 01 00:43:52
  TRACK 27 AUDIO
    TITLE "7:cjc019_0057"
    INDEX 01 00:44:20
  TRACK 28 AUDIO
    TITLE "0:"
    INDEX 01 00:46:27
  TRACK 29 AUDIO
    TITLE "8:cjc019_0058"
    INDEX 01 00:47:05
  TRACK 30 AUDIO
    TITLE "0:"
    INDEX 01 00:52:39
  TRACK 31 AUDIO
    TITLE "6:cjc019_0059"
    INDEX 01 00:53:15
  TRACK 32 AUDIO
    TITLE "0:"
    INDEX 01 00:54:38
  TRACK 33 AUDIO
    TITLE "7:cjc019_0060"
    INDEX 01 00:55:22
  TRACK 34 AUDIO
    TITLE "0:"
    INDEX 01 00:59:12
  TRACK 35 AUDIO
    TITLE "8:cjc019_0061"
    INDEX 01 00:59:67
  TRACK 36 AUDIO
    TITLE "0:"
    INDEX 01 01:03:14
  TRACK 37 AUDIO
    TITLE "6:cjc019_0062"
    INDEX 01 01:03:73
  TRACK 38 AUDIO
    TITLE "0:"
    INDEX 01 01:05:28
  TRACK 39 AUDIO
    TITLE "7:cjc019_0063"
    INDEX 01 01:06:10
  TRACK 40 AUDIO
    TITLE "0:"
    INDEX 01 01:08:31
  TRACK 41 AUDIO
    TITLE "8:cjc019_0064"
    INDEX 01 01:09:09
  TRACK 42 AUDIO
    TITLE "0:"
    INDEX 01 01:12:38
  TRACK 43 AUDIO
    TITLE "6:cjc019_0065"
    INDEX 01 01:13:18
  TRACK 44 AUDIO
    TITLE "0:"
    INDEX 01 01:15:39
  TRACK 45 AUDIO
    TITLE "7:cjc019_0066"
    INDEX 01 01:16:18
  TRACK 46 AUDIO
    TITLE "0:"
    INDEX 01 01:19:48
  TRACK 47 AUDIO
    TITLE "8:cjc019_0067"
    INDEX 01 01:20:32
  TRACK 48 AUDIO
    TITLE "0:"
    INDEX 01 01:24:69
  TRACK 49 AUDIO
    TITLE "6:cjc019_0068"
    INDEX 01 01:25:60
  TRACK 50 AUDIO
    TITLE "0:"
    INDEX 01 01:27:30
  TRACK 51 AUDIO
    TITLE "7:cjc019_0069"
    INDEX 01 01:28:06
  TRACK 52 AUDIO
    TITLE "0:"
    INDEX 01 01:29:54
  TRACK 53 AUDIO
    TITLE "8:cjc019_0070"
    INDEX 01 01:30:34
  TRACK 54 AUDIO
    TITLE "0:"
    INDEX 01 01:32:72
  TRACK 55 AUDIO
    TITLE "6:cjc019_0071"
    INDEX 01 01:33:52
  TRACK 56 AUDIO
    TITLE "0:"
    INDEX 01 01:35:10
  TRACK 57 AUDIO
    TITLE "7:cjc019_0072"
    INDEX 01 01:35:69
  TRACK 58 AUDIO
    TITLE "0:"
    INDEX 01 01:37:09
  TRACK 59 AUDIO
    TITLE "8:cjc019_0073"
    INDEX 01 01:37:69
  TRACK 60 AUDIO
    TITLE "0:"
    INDEX 01 01:44:62
  TRACK 61 AUDIO
    TITLE "6:cjc019_0074"
    INDEX 01 01:45:45
  TRACK 62 AUDIO
    TITLE "0:"
    INDEX 01 01:46:65
  TRACK 63 AUDIO
    TITLE "7:cjc019_0075"
    INDEX 01 01:47:44
  TRACK 64 AUDIO
    TITLE "0:"
    INDEX 01 01:51:38
  TRACK 65 AUDIO
    TITLE "8:cjc019_0076"
    INDEX 01 01:52:18
  TRACK 66 AUDIO
    TITLE "0:"
    INDEX 01 01:55:20
  TRACK 67 AUDIO
    TITLE "6:cjc019_0077"
    INDEX 01 01:56:04
  TRACK 68 AUDIO
    TITLE "0:"
    INDEX 01 01:57:29
  TRACK 69 AUDIO
    TITLE "7:cjc019_0078"
    INDEX 01 01:58:09
  TRACK 70 AUDIO
    TITLE "0:"
    INDEX 01 01:59:20
  TRACK 71 AUDIO
    TITLE "8:cjc019_0079"
    INDEX 01 02:00:02
  TRACK 72 AUDIO
    TITLE "0:"
    INDEX 01 02:04:35
  TRACK 73 AUDIO
    TITLE "6:cjc019_0080"
    INDEX 01 02:05:19
  TRACK 74 AUDIO
    TITLE "0:"
    INDEX 01 02:06:48
  TRACK 75 AUDIO
    TITLE "7:cjc019_0081"
    INDEX 01 02:07:31
  TRACK 76 AUDIO
    TITLE "0:"
    INDEX 01 02:08:47
  TRACK 77 AUDIO
    TITLE "8:cjc019_0082"
    INDEX 01 02:09:28
  TRACK 78 AUDIO
    TITLE "0:"
    INDEX 01 02:15:51
  TRACK 79 AUDIO
    TITLE "6:cjc019_0083"
    INDEX 01 02:16:28
  TRACK 80 AUDIO
    TITLE "0:"
    INDEX 01 02:17:51
  TRACK 81 AUDIO
    TITLE "7:cjc019_0084"
    INDEX 01 02:18:29
  TRACK 82 AUDIO
    TITLE "0:"
    INDEX 01 02:19:72
  TRACK 83 AUDIO
    TITLE "8:cjc019_0085"
    INDEX 01 02:20:52
  TRACK 84 AUDIO
    TITLE "0:"
    INDEX 01 02:23:36
